# xmcd
#
# Track frame offsets:
#	150
#	25410
#	38332
#	68442
#	93465
#	112816
#	133030
#	165934
#
# Disc length: 2247 seconds
#
# Revision: 1
# Processed by: cddbd v1.5.2PL0 Copyright (c) Steve Scherf et al.
# Submitted via: audiograbber 1.83.01
#
DISCID=5308c508
DTITLE=Sugar Fix - Slam! Bam! Thank you Ma' am - Disc 2
DYEAR=2006
DGENRE=Blues, Rock
TTITLE0=We're Gonna Boogie (Live)
TTITLE1=Brand New Cadillac 
TTITLE2=See My Baby Again
TTITLE3=City By Night
TTITLE4=Surisha
TTITLE5=Good Ol' Day
TTITLE6=Messin' 'round
TTITLE7=MT
EXTD=
EXTT0=
EXTT1=
EXTT2=
EXTT3=
EXTT4=
EXTT5=
EXTT6=
EXTT7=
PLAYORDER=
